<?xml version="1.0" encoding="utf-8"?>
<!-- Generator: Adobe Illustrator 19.0.0, SVG Export Plug-In . SVG Version: 6.00 Build 0)  -->
<svg version="1.1" id="Capa_1" xmlns="http://www.w3.org/2000/svg" xmlns:xlink="http://www.w3.org/1999/xlink" x="0px" y="0px"
	 viewBox="-455 258.2 47.9 45.8" style="enable-background:new -455 258.2 47.9 45.8;" xml:space="preserve">
<style type="text/css">
	.st0{clip-path:url(#SVGID_2_);fill:#757575;}
</style>
<g>
	<g>
		<g>
			<g>
				<defs>
					<rect id="SVGID_1_" x="-454.5" y="258.2" width="47" height="45.8"/>
				</defs>
				<clipPath id="SVGID_2_">
					<use xlink:href="#SVGID_1_"  style="overflow:visible;"/>
				</clipPath>
				<path class="st0" d="M-431,258.4c-13,0-23.5,9.5-23.5,21.2c0,4.1,1.3,8,3.7,11.4c-0.5,5.1-1.7,8.9-3.5,10.7
					c-0.2,0.2-0.3,0.6-0.1,0.9c0.1,0.3,0.4,0.4,0.7,0.4h0.1c0.3,0,7.7-1.1,13-4.2c3,1.2,6.3,1.8,9.6,1.8c13,0,23.5-9.5,23.5-21.2
					C-407.5,267.9-418.1,258.4-431,258.4L-431,258.4z M-442,282.7c-1.7,0-3.1-1.4-3.1-3.1s1.4-3.1,3.1-3.1s3.1,1.4,3.1,3.1
					S-440.3,282.7-442,282.7L-442,282.7z M-431,282.7c-1.7,0-3.1-1.4-3.1-3.1s1.4-3.1,3.1-3.1s3.1,1.4,3.1,3.1
					S-429.3,282.7-431,282.7L-431,282.7z M-420.1,282.7c-1.7,0-3.1-1.4-3.1-3.1s1.4-3.1,3.1-3.1s3.1,1.4,3.1,3.1
					C-416.9,281.3-418.3,282.7-420.1,282.7L-420.1,282.7z"/>
			</g>
		</g>
	</g>
</g>
</svg>
