<?xml version="1.0" encoding="utf-8"?>
<!-- Generator: Adobe Illustrator 19.0.0, SVG Export Plug-In . SVG Version: 6.00 Build 0)  -->
<svg version="1.1" id="Laag_1" xmlns="http://www.w3.org/2000/svg" xmlns:xlink="http://www.w3.org/1999/xlink" x="0px" y="0px"
	 viewBox="0 0 25.6 21.6" style="enable-background:new 0 0 25.6 21.6;" xml:space="preserve">
<path d="M25,4.4c-0.4-0.9-0.9-1.6-1.5-2.3c-0.7-0.7-1.4-1.2-2.3-1.5C20.3,0.2,19.4,0,18.4,0c-1,0-1.9,0.2-2.8,0.7
	c-0.9,0.4-1.6,1.1-2.3,1.8c-0.2,0.2-0.3,0.4-0.5,0.7c-0.2-0.2-0.3-0.4-0.5-0.7c-0.7-0.8-1.4-1.4-2.3-1.8C9.1,0.2,8.2,0,7.2,0
	c-1,0-1.9,0.2-2.8,0.6C3.5,0.9,2.8,1.5,2.1,2.1C1.5,2.8,0.9,3.5,0.6,4.4C0.2,5.3,0,6.2,0,7.2c0,1,0.2,1.9,0.6,2.8
	c0.4,0.9,0.9,1.6,1.5,2.3c0.7,0.6,9.8,8.9,10.7,9.3c0.9-0.4,10-8.7,10.7-9.3c0.6-0.7,1.2-1.4,1.5-2.3c0.4-0.9,0.6-1.8,0.6-2.8
	C25.6,6.2,25.4,5.3,25,4.4z"/>
</svg>
