<?xml version="1.0" encoding="utf-8"?>
<!-- Generator: Adobe Illustrator 19.0.0, SVG Export Plug-In . SVG Version: 6.00 Build 0)  -->
<svg version="1.1" id="Laag_1" xmlns="http://www.w3.org/2000/svg" xmlns:xlink="http://www.w3.org/1999/xlink" x="0px" y="0px"
	 viewBox="0 0 108.7 42.4" style="enable-background:new 0 0 108.7 42.4;" xml:space="preserve">
<style type="text/css">
	.st0{fill:#003082;}
</style>
<path id="XMLID_6_" class="st0" d="M108.4,20.8C101.5,14,94.7,7.1,87.8,0.3C87.7,0.1,87.4,0,87.2,0c-3.8,0-7.6,0-11.5,0
	c-0.1,0-0.2,0-0.5,0C81,5.7,86.6,11.3,92.2,17c-0.2,0-0.3,0-0.5,0c-7.3,0-14.6,0-21.9,0c-1.2,0-2.2-0.5-3-1.3
	c-4.1-4.1-8.2-8.2-12.3-12.3C52.2,1.1,49.4,0,46.1,0C38,0,29.9,0,21.8,0c-0.4,0-0.6,0.1-0.9,0.4C14,7.2,7.2,14,0.3,20.8
	C0.2,20.9,0.1,21,0,21.1c0.1,0.1,0.1,0.1,0.2,0.2c7,7,14,14,20.9,20.9c0.1,0.1,0.4,0.2,0.6,0.2c3.7,0,7.4,0,11.2,0
	c0.1,0,0.2,0,0.4,0C27.6,36.7,22,31.1,16.4,25.5c0,0,0-0.1,0-0.1c0.1,0,0.3,0,0.4,0c2.3,0,4.5,0,6.8,0c5,0,10.1,0,15.1,0
	c1.3,0,2.4,0.4,3.4,1.4c3.9,4,7.8,7.9,11.6,11.9c2.4,2.5,5.4,3.7,8.9,3.7c8.1,0,16.3,0,24.4,0c0.3,0,0.5-0.1,0.7-0.3
	c6.7-6.8,13.3-13.5,20-20.2c0.3-0.3,0.5-0.5,0.8-0.7C108.5,21,108.4,20.9,108.4,20.8z M92,25.7c-2.6,2.6-5.2,5.2-7.7,7.8
	c-0.2,0.2-0.4,0.3-0.7,0.3c-7,0-13.9,0-20.9,0c-1.2,0-2.1-0.4-3-1.2c-3.9-4-7.9-7.9-11.8-11.8c-1.5-1.5-3.1-2.6-5.1-3.2
	c-1.3-0.4-2.7-0.5-4-0.5c-7.3,0-14.6,0-21.8,0c-0.2,0-0.3,0-0.5,0c0-0.1-0.1-0.1-0.1-0.2c0.2-0.2,0.5-0.4,0.7-0.6
	c2.5-2.5,4.9-5,7.4-7.6c0.2-0.2,0.4-0.3,0.8-0.3c6.9,0,13.8,0,20.7,0c1.1,0,2,0.4,2.7,1.1c1.1,1.1,2.2,2.2,3.3,3.3c3,3,6,6,9,9
	c1.7,1.7,3.6,3,6,3.4c1,0.2,2,0.3,2.9,0.3c7.3,0,14.6,0,21.9,0c0.2,0,0.4,0,0.6,0C92.1,25.6,92.1,25.7,92,25.7z"/>
</svg>
