<?xml version="1.0" encoding="utf-8"?>
<!-- Generator: Adobe Illustrator 19.0.0, SVG Export Plug-In . SVG Version: 6.00 Build 0)  -->
<svg version="1.1" id="Capa_1" xmlns="http://www.w3.org/2000/svg" xmlns:xlink="http://www.w3.org/1999/xlink" x="0px" y="0px"
	 viewBox="-74 197.6 446.2 446.2" style="enable-background:new -74 197.6 446.2 446.2;" xml:space="preserve">
<style type="text/css">
	.st0{fill:#003082;}
</style>
<g>
	<g id="search">
		<path class="st0" d="M244.8,478.1h-20.4l-7.6-7.6c25.5-28.1,40.8-66.3,40.8-107.1c0-91.8-74-165.8-165.8-165.8S-74,271.6-74,363.4
			S-0.1,529.1,91.8,529.1c40.8,0,79.1-15.3,107.1-40.8l7.6,7.6v20.4L334,643.9l38.2-38.2L244.8,478.1z M91.8,478.1
			C28,478.1-23,427.1-23,363.4S28,248.6,91.8,248.6s114.8,51,114.8,114.8S155.5,478.1,91.8,478.1z"/>
	</g>
</g>
</svg>
