<?xml version="1.0" encoding="utf-8"?>
<!-- Generator: Adobe Illustrator 19.0.0, SVG Export Plug-In . SVG Version: 6.00 Build 0)  -->
<svg version="1.1" id="Laag_1" xmlns="http://www.w3.org/2000/svg" xmlns:xlink="http://www.w3.org/1999/xlink" x="0px" y="0px"
	 viewBox="0 0 1024 768" style="enable-background:new 0 0 1024 768;" xml:space="preserve">
<style type="text/css">
	.st0{fill:#556080;}
	.st1{fill:#ECF0F1;}
</style>
<circle class="st0" cx="509.2" cy="382.4" r="21.2"/>
<path class="st1" d="M503.2,392.9l-6.1,3.3c-0.4,0.2-0.7,0.4-1,0.7c3.5,3,8.1,4.8,13.1,4.8c4.9,0,9.5-1.8,13-4.7
	c-0.3-0.3-0.7-0.5-1.1-0.7l-6.5-3.2c-0.8-0.4-1.4-1.3-1.4-2.2v-2.5c0.2-0.2,0.4-0.5,0.6-0.8c0.9-1.3,1.6-2.6,2-4.1
	c0.8-0.3,1.4-1,1.4-1.9v-2.7c0-0.6-0.3-1.1-0.7-1.5v-3.9c0,0,0.8-6.1-7.5-6.1c-8.3,0-7.5,6.1-7.5,6.1v3.9c-0.4,0.4-0.7,0.9-0.7,1.5
	v2.7c0,0.7,0.4,1.3,0.9,1.7c0.7,3,2.5,5.1,2.5,5.1v2.5C504.5,391.6,504,392.4,503.2,392.9L503.2,392.9z M503.2,392.9"/>
</svg>
