<?xml version="1.0" encoding="utf-8"?>
<!-- Generator: Adobe Illustrator 19.0.0, SVG Export Plug-In . SVG Version: 6.00 Build 0)  -->
<svg version="1.1" id="Laag_1" xmlns="http://www.w3.org/2000/svg" xmlns:xlink="http://www.w3.org/1999/xlink" x="0px" y="0px"
	 viewBox="633 363.3 42.2 42.2" style="enable-background:new 633 363.3 42.2 42.2;" xml:space="preserve">
<style type="text/css">
	.st0{fill:#556080;}
	.st1{fill:#ECF0F1;}
</style>
<g>
	<circle class="st0" cx="654.1" cy="384.4" r="21.1"/>
	<path class="st1" d="M648.1,394.9l-6.1,3.3c-0.4,0.2-0.7,0.4-1,0.7c3.5,3,8.1,4.8,13.1,4.8c4.9,0,9.5-1.8,13-4.7
		c-0.3-0.3-0.7-0.5-1.1-0.7l-6.5-3.2c-0.8-0.4-1.4-1.3-1.4-2.2v-2.5c0.2-0.2,0.4-0.5,0.6-0.8c0.9-1.3,1.6-2.6,2-4.1
		c0.8-0.3,1.4-1,1.4-1.9v-2.7c0-0.6-0.3-1.1-0.7-1.5v-3.9c0,0,0.8-6.1-7.5-6.1c-8.3,0-7.5,6.1-7.5,6.1v3.9c-0.4,0.4-0.7,0.9-0.7,1.5
		v2.7c0,0.7,0.4,1.3,0.9,1.7c0.7,3,2.5,5.1,2.5,5.1v2.5C649.4,393.6,648.9,394.4,648.1,394.9L648.1,394.9z"/>
</g>
</svg>
